<?xml version="1.0" encoding="UTF-8" standalone="no"?>
<svg xmlns:rdf="http://www.w3.org/1999/02/22-rdf-syntax-ns#" xmlns="http://www.w3.org/2000/svg" height="255.64" width="255.77" version="1.0" preserveAspectRatio="xMidYMid meet" xmlns:cc="http://creativecommons.org/ns#" xmlns:dc="http://purl.org/dc/elements/1.1/" viewBox="0 0 2557.7232 2556.4247">
 <g transform="translate(-20.916 -21.134)">
  <path d="m1940 2562c-83-28-143-66-207-135-141-152-176-340-104-557 59-174 214-448 388-682 36-49 67-88 70-88 7 0 19 15 105 134 156 218 303 482 359 646 27 81 36 230 19 309-32 149-138 282-276 348-75 36-85 38-189 40-85 2-123-1-165-15zm-15-209c-11-30-33-144-40-208-9-85 15-219 80-445 30-105 55-194 55-197 0-11-135 229-190 337-27 52-54 117-61 143-17 69-7 173 24 240 33 72 157 194 132 130z"/>
  <path d="m910 2175c-454-86-808-447-880-897-18-111-8-351 19-450 104-380 398-675 779-779 110-30 354-37 475-15 211 40 387 130 545 280 103 97 164 181 228 311 50 101 114 308 101 321-3 3-14 1-25-5-30-16-108-13-143 5-17 8-32 14-34 12-1-2-12-37-24-80-84-308-324-545-636-629-103-28-296-30-399-5-226 55-418 186-541 371-181 271-200 604-52 890 108 209 294 365 522 438 96 31 106 32 260 31 164-1 158 0 319-51 16-5 18-3 12 13-5 10-11 62-13 115l-6 96-76 18c-104 23-333 29-431 10z"/>
  <path d="m588 1568c-111-119-178-296-178-470 1-257 151-498 380-612 152-74 296-94 457-60 127 26 275 106 356 192 26 27 32 29 61 20 43-13 87 6 100 45 8 23 6 36-12 70l-22 42 25 71c83 237 33 511-123 685-47 52-78 62-106 33-26-25-19-56 26-109 22-28 58-86 79-130 64-138 73-274 28-420l-20-66-29 23c-205 164-309 256-313 278-9 41-50 93-92 118-34 19-52 22-112 20-63-3-76-7-110-34-50-41-72-81-80-143-5-42-1-59 21-106 36-72 95-109 179-112 52-2 76-11 243-100l186-98-49-43c-56-51-186-116-261-131-122-25-263-6-381 52-90 43-215 168-258 258-58 119-77 259-52 381 15 72 68 183 116 243 51 65 57 82 38 111-22 34-60 31-97-8z"/>
 </g>
</svg>
