<svg xmlns:rdf="http://www.w3.org/1999/02/22-rdf-syntax-ns#" xmlns="http://www.w3.org/2000/svg" height="274.44" width="298" version="1.0" preserveAspectRatio="xMidYMid meet" xmlns:cc="http://creativecommons.org/ns#" xmlns:dc="http://purl.org/dc/elements/1.1/" viewBox="0 0 2980 2744.3747">
<g transform="translate(-190 -201.39)">
<path d="m1436 2940c-182-29-324-92-432-193-103-96-136-165-142-299l-5-98h-50c-42 0-55 5-87 34-56 51-134 76-235 76-132 0-230-43-273-119-20-35-22-53-22-197 1-119 4-165 15-184s14-70 15-223c0-144 4-207 14-231 33-80 157-134 283-123 80 7 129 26 177 68 47 41 56 78 56 242v137h25c23 0 25 4 25 45v45h-45c-25 0-45 3-45 7s8 27 18 50c16 41 19 43 58 43 29 0 44 5 48 16 11 30 6 34-44 34h-50v95 95h131 131l69 41c42 25 77 55 90 76 31 50 124 107 221 134 68 19 107 23 218 23 149 0 222-14 320-64 50-25 130-97 130-118 0-4 14-15 31-25l32-18-7 33c-22 110-175 207-376 239-90 14-261 6-345-16-150-39-267-124-294-214l-12-41h-66-65l7 38c11 61 65 151 119 198 97 85 262 150 441 173 54 6 61 9 28 10-123 3-329-51-434-115-32-19-81-60-110-91l-52-57 8 34c48 223 354 378 700 356 214-13 376-75 486-185 91-92 103-126 104-313l1-146 31-36 31-35 12 32c18 47 25 271 11 337-31 147-133 267-293 344-134 64-234 87-403 91-77 2-167 0-199-5zm-818-594c65-34 72-48 72-140v-85l-57 27c-49 22-72 26-148 26s-99-4-147-26l-58-27v80c0 44 5 89 10 100 11 19 54 45 100 60 43 14 191 5 228-15zm-69-247c65-14 101-42 101-79v-29l-47 22c-67 30-190 31-250 1-41-20-43-20-43-3 0 32 43 70 95 84 63 17 82 18 144 4zm72-105c32-19 33-22 30-69-1-28-4-51-5-52s-22 7-46 19c-60 30-176 30-242 1l-48-22v40c0 75 67 110 201 105 54-2 86-8 110-22zm-8-119c36-18 37-20 37-72 0-29-2-53-4-53s-25 10-51 21c-65 29-174 29-239 1l-46-21v37c0 52 19 73 87 98 50 19 166 12 216-11zm-6-121c34-17 38-24 41-60l3-41-53 18c-83 29-176 23-270-16-29-12-24 46 6 74 55 51 193 64 273 25zm-34-128c78-28 100-77 51-115-80-63-252-48-301 25-12 20-12 25 9 48 44 51 159 71 241 42z"/>
<path d="m424 1594c-12-3-29-13-38-23-15-16-15-19 3-35 39-35 171-31 195 7 18 28-13 48-80 52-33 2-69 1-80-1z"/>
<path d="m1530 2473v-38h70 70v38 37h-70-70v-37z"/>
<path d="m1340 2467c-45-18-56-27-58-48l-3-26 70 16c70 16 71 16 71 48 0 39-7 40-80 10z"/>
<path d="m1772 2458c3-31 6-34 53-45 77-17 95-16 95 7 0 22-52 50-119 65-32 7-32 6-29-27z"/>
<path d="m1425 2371c-173-28-346-106-436-195-102-102-139-202-139-381 0-159 29-254 105-342l35-41v-529c0-491 2-531 19-568 23-51 70-91 121-105 26-7 195-10 494-8l454 3 43 30c74 53 84 83 87 291l4 182 141 4c116 4 153 9 202 28 82 32 172 122 206 205l24 60 3 505c1 343 6 512 13 526 19 37 52 44 214 44h155v141 141l-192-4c-185-3-195-4-250-30-76-35-138-95-179-170l-34-63-5-520c-4-385-8-526-17-541-19-33-65-44-179-44h-104v210 211l40 52c75 100 84 133 88 309 4 185-6 233-69 328-51 76-128 138-234 190-129 63-215 81-400 85-88 2-182 0-210-4zm325-96c228-34 393-132 462-273 33-66 33-69 33-207 0-131-2-144-26-195-54-112-58-110-59 30 0 110-3 131-24 176-41 88-162 169-316 211-92 26-358 25-450-1-147-40-272-125-311-211-15-32-19-66-19-169 0-145-7-151-56-50-72 148-21 311 131 419 105 75 199 110 382 140l88 14-80-5c-231-15-435-103-526-226l-31-43 7 39c25 141 175 270 380 327 145 39 268 47 415 24zm1320-55v-40h-110c-118 0-164-12-208-53-58-54-57-38-62-602-5-513-5-521-27-561-28-53-74-99-127-127-36-19-60-22-198-25l-158-4v46 46h140c96 0 151 4 173 14 37 15 94 76 102 109 3 12 6 249 7 527 3 497 3 506 25 550 25 52 45 76 93 111 54 41 85 47 223 48l127 1v-40zm-1490-595v-365h-47c-27 0-79-7-118-15-38-8-73-15-77-15-5 0-8 162-8 360 0 280 3 362 13 365 33 13 147 33 190 34l47 1v-365zm225 343 50-13 3-362c1-200 1-363 0-363-2 0-35 7-73 15-39 8-94 15-122 15h-53v366 367l73-6c39-4 95-12 122-19zm-505-390v-363l-58-27c-32-15-79-45-105-68l-47-42v337c0 371 0 372 63 433 25 24 130 91 145 92 1 0 2-163 2-362zm643 341c66-34 123-85 146-132 20-41 21-59 21-380v-337l-41 40c-23 22-72 55-110 72l-68 33v363c-1 199 1 362 4 362s25-10 48-21zm-150-705c122-24 235-86 287-158 26-35 30-48 30-109v-70l-46 43c-51 47-138 91-234 117-92 25-367 25-460 0-86-23-196-78-242-120l-38-35v65c0 75 14 106 68 155 126 114 392 161 635 112zm-11-219c89-18 222-82 265-127 18-18 39-50 48-70l15-38h-85-85v-114-115l-53-19c-95-36-166-44-328-40-131 4-165 9-224 30l-70 25-3 116-3 117h-85c-74 0-85 2-80 16 3 9 6 20 6 25 0 17 81 98 123 122 101 58 219 85 374 86 64 1 143-5 185-14zm-572-430v-145h390 390v145 145h60 60v-176-176l-29-29-29-29h-447c-320 0-452 3-468 12-44 23-46 35-47 221v177h60 60v-145z"/>
</g>
</svg>
