<svg xmlns:rdf="http://www.w3.org/1999/02/22-rdf-syntax-ns#" xmlns="http://www.w3.org/2000/svg" height="185.81" width="118.05" version="1.0" preserveAspectRatio="xMidYMid meet" xmlns:cc="http://creativecommons.org/ns#" xmlns:dc="http://purl.org/dc/elements/1.1/" viewBox="0 0 1180.4509 1858.1085">
<g transform="translate(-160 -51.995)">
<path d="m545 1899c-166-21-307-71-355-126-30-34-30-34-30-159 0-69 3-124 8-122 204 102 269 118 527 125 142 4 215 1 290-10 121-19 249-58 299-92 20-14 41-25 46-25 6 0 10 49 10 118 0 142-10 163-96 209-145 77-451 113-699 82z"/>
<path d="m526 1589c-149-20-298-71-346-119-17-17-20-34-20-125v-105l47 31c231 146 869 142 1088-6 20-14 38-25 41-25 2 0 3 48 2 107l-3 107-43 33c-91 69-313 114-553 112-79-1-175-5-213-10z"/>
<path d="m555 1349c-168-20-302-62-363-113l-32-28v-104c0-95 7-122 25-94 13 21 111 63 200 85 299 76 738 42 907-70 21-14 40-25 43-25 10 0 5 191-5 210-24 45-154 99-299 125-106 20-368 27-476 14z"/>
<path d="m610 1109c-185-13-340-56-416-114l-34-26v-105c0-57 2-104 5-104s22 11 43 24c100 66 304 106 542 106 224 0 371-26 500-89 41-20 78-37 83-39 4-2 7 41 7 95 0 95-1 100-27 125-70 65-230 112-440 127-76 6-142 10-148 10-5-1-57-5-115-10z"/>
<path d="m498 855c-108-18-189-41-251-72-83-42-87-48-87-168v-105l47 31c27 16 82 40 123 53 132 42 212 51 425 50 168 0 217-4 304-23 101-21 241-76 255-100 19-29 26-3 26 93v105l-37 30c-45 37-117 65-233 93-114 26-445 34-572 13z"/>
<path d="m552 619c-159-19-299-63-360-113l-32-28v-130-131l39-37c158-151 764-174 1039-39 92 45 102 66 102 212 0 113-1 119-25 143-99 99-463 158-763 123zm483-254c114-25 118-30 39-49-203-48-449-47-659 1l-70 16 45 14c148 45 477 54 645 18zm-657-75c119-31 204-40 372-40 167 0 237 8 372 42l87 21 35-27c31-23 35-30 25-47-6-12-39-34-74-51-215-100-668-102-890-3-87 39-102 73-47 108 34 21 28 21 120-3z"/>
</g>
</svg>
