<svg xmlns:rdf="http://www.w3.org/1999/02/22-rdf-syntax-ns#" xmlns="http://www.w3.org/2000/svg" height="173.38" width="156" version="1.0" preserveAspectRatio="xMidYMid meet" xmlns:cc="http://creativecommons.org/ns#" xmlns:dc="http://purl.org/dc/elements/1.1/" viewBox="0 0 1560 1733.7733">
<g fill="#060606" transform="translate(-230 -175.24)">
<path d="m835 1883c-75-27-172-91-218-142l-27-31h-124c-121 0-124 1-140 25-20 30-56 33-79 7-15-17-17-55-17-344 0-302 1-326 18-341 27-24 47-21 75 13l26 30h118 118l50-51c27-27 75-66 108-86l58-35-2-115c-1-63 1-116 4-119 7-7 397-7 404-1 3 3 5 57 4 120l-2 115 56 31c31 18 81 57 112 86l55 55h117 117l22-30c26-35 50-38 80-10 22 21 22 24 22 344 0 300-1 324-18 339-26 24-57 21-80-8-19-24-24-25-142-25h-122l-62 58c-110 101-214 142-361 141-82 0-113-5-170-26z"/>
<path d="m904 617c-3-8-4-52-2-98l3-84 103-1 102-1v99 98h-100c-75 0-102-3-106-13z"/>
<path d="m428 374c-49-15-98-62-98-94 0-11 13-34 29-52 54-61 173-68 253-14 23 15 44 17 147 14 91-2 123-7 137-19 11-9 41-21 67-28 53-13 106-3 162 31 44 26 245 26 283 0 48-33 113-45 163-31 59 17 87 36 105 70 21 41-1 80-62 110-62 30-116 29-184-2-50-23-65-25-175-23-99 2-127 6-160 23-52 28-128 28-180 0-34-18-58-21-167-21-75 0-133 4-140 10-17 13-98 42-118 41-8 0-36-7-62-15z"/>
</g>
</svg>
